<svg width="210" height="100" viewBox="0 0 210 100" fill="none" xmlns="http://www.w3.org/2000/svg">
<g clip-path="url(#clip0_333_7418)">
<path d="M157.409 39.7817H151.7V76.8344H157.409V39.7817Z" fill="#F9F9FB"/>
<path d="M95.2835 40.0243H69.8381V45.7247H79.5547V76.6525H85.6276V45.7247H95.2835V40.0243Z" fill="#F9F9FB"/>
<path d="M113.381 48.7568V51.4251C110.891 49.1813 107.915 48.0291 104.454 48.0291C100.203 48.0291 96.9232 49.4239 94.1297 52.3348C91.5791 55.003 90.1216 58.6416 90.1216 62.5227C90.1216 70.8915 96.3766 77.1983 104.696 77.1983C107.915 77.1983 110.891 76.0461 113.32 73.863V76.5919H119.15V48.6962H113.381V48.7568ZM105.061 71.7405C100.081 71.7405 96.1337 67.6774 96.1337 62.5227C96.1337 57.6107 100.081 53.6689 104.939 53.6689C109.737 53.6689 113.684 57.7926 113.684 62.8866C113.684 67.6167 109.616 71.7405 105.061 71.7405Z" fill="#F9F9FB"/>
<path d="M184.98 52.2135C182.125 49.3633 178.603 47.9078 174.534 47.9078C170.708 47.9078 167.004 49.5452 164.15 52.5773C161.538 55.3062 160.142 58.8235 160.142 62.7653C160.142 66.5252 161.721 70.4063 164.332 73.0746C167.125 75.9854 170.587 77.4409 174.777 77.4409C178.846 77.4409 182.49 75.8035 185.344 72.7107C187.834 69.9818 189.291 66.222 189.291 62.4015C189.291 58.6416 187.773 55.003 184.98 52.2135ZM174.838 71.6798C169.919 71.6798 166.214 67.7987 166.214 62.7047C166.214 57.55 169.919 53.6689 174.838 53.6689C179.818 53.6689 183.461 57.4894 183.461 62.7047C183.401 67.7987 179.696 71.6798 174.838 71.6798Z" fill="#F9F9FB"/>
<path d="M201.68 48.9994L201.559 49.06C201.377 49.1207 201.134 49.242 200.951 49.3026L200.83 49.3633C200.466 49.5452 198.887 50.3335 197.672 52.0922V48.8175H191.903V76.6525H197.611V62.2195C197.611 57.0042 200.405 54.2753 205.749 54.2753C206.417 54.2753 207.206 54.3966 208.239 54.6392L208.785 54.7605V48.8175L208.482 48.6962C206.296 48.0291 203.927 48.1504 201.68 48.9994Z" fill="#F9F9FB"/>
<path d="M143.684 48.7568L135.668 68.587L127.834 48.7568H121.518L132.389 76.3493L123.158 100H129.535L149.939 48.7568H143.684Z" fill="#F9F9FB"/>
<path d="M75.6074 22.3772C75.6074 16.8587 79.0689 14.3723 82.9555 14.3723C87.0851 14.3723 89.5142 17.8896 89.5142 22.8017V37.4166H95.2835V21.225C95.2835 13.7053 90.4252 8.79321 83.4414 8.79321C80.162 8.79321 77.5507 9.76349 75.6074 11.6434V0.303214H69.8381V37.4166H75.6074V22.3772Z" fill="#F9F9FB"/>
<path d="M121.457 9.52092V12.1892C118.968 9.94542 115.992 8.85385 112.53 8.85385C108.279 8.85385 105 10.2486 102.267 13.1595C99.6558 15.8278 98.259 19.4663 98.259 23.3475C98.259 31.7162 104.514 38.023 112.834 38.023C116.053 38.023 119.028 36.8708 121.457 34.6877V37.356H127.287V9.46028H121.457V9.52092ZM113.077 32.5045C108.097 32.5045 104.15 28.4415 104.15 23.2868C104.15 18.3748 108.097 14.433 112.955 14.433C117.753 14.433 121.7 18.5567 121.7 23.6507C121.7 28.3808 117.692 32.5045 113.077 32.5045Z" fill="#F9F9FB"/>
<path d="M157.409 0.303214H151.7V37.356H157.409V0.303214Z" fill="#F9F9FB"/>
<path d="M137.065 22.9836C137.065 17.7683 139.919 15.0394 145.203 15.0394C146.964 15.0394 148.664 15.6458 148.664 15.6458V9.70285L147.996 9.46028C145.749 8.79321 143.32 8.91449 141.134 9.76349L141.012 9.82414C140.769 9.88478 140.587 10.0061 140.344 10.1274L140.223 10.188C139.858 10.3699 139.494 10.5518 139.13 10.7944L138.947 10.9157C138.219 11.4008 137.611 11.9466 137.004 12.6137V9.52092H131.296V37.4166H137.004V22.9836H137.065Z" fill="#F9F9FB"/>
<path d="M186.316 15.1607C183.462 11.2189 179.089 8.91449 174.352 8.91449C170.587 8.91449 166.883 10.5518 164.089 13.5233C161.538 16.2523 160.202 19.7089 160.202 23.5294C160.202 27.2893 161.721 30.9885 164.332 33.7174C167.065 36.5676 170.587 38.023 174.656 38.023C180.668 38.023 185.466 34.6877 187.895 28.866H181.336C179.939 31.1098 177.449 32.3833 174.474 32.3833C169.919 32.3833 166.822 29.7756 166.397 25.6519V25.3487H188.866C188.866 25.1668 188.866 25.0455 188.866 24.8636C188.866 24.621 188.866 24.3784 188.866 24.1965C188.927 20.376 188.077 17.5258 186.316 15.1607ZM166.518 20.6792L166.64 20.376C167.672 16.7981 170.769 14.433 174.352 14.433C178.482 14.433 181.275 16.4948 182.368 20.376L182.49 20.6792H166.518Z" fill="#F9F9FB"/>
<path d="M196.579 28.8053C196.761 32.6258 199.312 33.3535 200.526 33.3535C202.713 33.3535 204.352 31.5949 204.352 29.6543C204.352 27.2286 202.348 26.6828 198.401 25.1061C196.275 24.3178 191.356 22.6198 191.356 17.2832C191.356 11.886 196.093 8.97514 200.648 8.97514C204.352 8.97514 209.332 10.9763 209.575 17.1619H204.049C203.806 15.8884 203.32 13.7053 200.526 13.7053C198.644 13.7053 197.065 14.9788 197.065 16.9193C197.004 19.0418 198.522 19.527 203.32 21.5282C207.632 23.4081 210 25.47 210 29.4118C210 33.96 207.207 38.1443 200.587 38.1443C194.211 38.1443 190.871 34.3238 190.931 28.866H196.579V28.8053Z" fill="#F9F9FB"/>
<path d="M48.4008 29.0479L48.3401 28.9873C48.2794 28.9266 48.2187 28.866 48.2187 28.866C47.9757 28.6234 47.7328 28.4415 47.4899 28.1989C46.4575 27.1073 45.668 25.8945 45.0608 24.4997C44.332 22.8623 43.9069 21.0431 43.9069 19.1025C43.9069 11.7647 49.7976 5.82171 57.0243 5.82171C60.6073 5.82171 63.8259 7.27714 66.1944 9.58156V2.66828L65.9515 2.547C63.1579 0.848999 59.9393 0 56.3563 0C51.3158 0 47.0041 1.75864 43.4211 5.33657C39.6559 9.03578 37.6519 13.7053 37.6519 18.7993C37.6519 23.8326 39.2915 28.3202 42.3887 31.7768C46.0932 35.9612 50.7693 38.0837 56.2956 38.0837C59.9393 38.0837 63.2187 37.2347 66.0122 35.5973L66.2551 35.476V28.5628C63.8867 30.8672 60.6681 32.3226 57.0851 32.3226C53.745 32.3226 50.7085 31.1098 48.4008 29.0479Z" fill="#F9F9FB"/>
<path d="M58.4211 49.5452V67.7987H8.8664V18.3141L27.2065 18.3748L18.2186 9.46028H0V76.6525H67.3482V58.4597L58.4211 49.5452Z" fill="#FF5E01"/>
</g>
<defs>
<clipPath id="clip0_333_7418">
<rect width="210" height="100" fill="white"/>
</clipPath>
</defs>
</svg>
